<svg width="96" height="32" viewBox="0 0 96 32" fill="none" xmlns="http://www.w3.org/2000/svg">
<path d="M35.031 10.0309H33.6094V14.6272H30.7578V2.42676H35.0882C37.6783 2.42676 39.7046 3.38931 39.7046 6.18875C39.721 9.00422 37.5067 10.0309 35.031 10.0309ZM34.8676 4.79304H33.6257V7.67269H34.8268C35.889 7.67269 36.8776 7.34381 36.8776 6.18875C36.8613 5.02566 35.889 4.79304 34.8676 4.79304Z" fill="black"/>
<path d="M45.7509 8.35392C45.4976 8.28975 45.2688 8.25767 45.0482 8.25767C43.5775 8.25767 43.0954 9.49295 43.0954 10.2068V14.6186H40.3501V6.03577H42.9892V7.27105H43.0219C43.4386 6.40475 44.2475 5.78711 45.2688 5.78711C45.4812 5.78711 45.7182 5.80315 45.8571 5.85128L45.7509 8.35392Z" fill="black"/>
<path d="M54.6976 11.1137H48.6677C48.7575 12.0602 49.6727 12.742 50.645 12.742C51.511 12.742 52.1157 12.373 52.4752 11.8436L54.3789 13.0789C53.6027 14.258 52.2954 14.9077 50.6041 14.9077C48.1039 14.9077 46.0286 13.2634 46.0286 10.3677C46.0286 7.56826 47.9895 5.77148 50.5142 5.77148C52.9736 5.77148 54.6812 7.50408 54.6812 10.4479C54.7139 10.6645 54.7139 10.8971 54.6976 11.1137ZM52.1974 9.34898C52.1974 8.4506 51.6418 7.70462 50.5633 7.70462C49.5174 7.70462 48.7494 8.46664 48.6758 9.34898H52.1974Z" fill="black"/>
<path d="M60.8339 14.8593C59.8125 14.8593 58.8239 14.4101 58.3173 13.6642H58.2846V18.7416H55.5393V6.05195H58.1457V7.10274H58.1948C58.6932 6.40489 59.6328 5.81934 60.8502 5.81934C63.2605 5.81934 64.7966 7.92894 64.7966 10.3113C64.7966 12.6936 63.3341 14.8593 60.8339 14.8593ZM60.1884 8.11343C58.9628 8.11343 58.1784 9.22839 58.1784 10.3113C58.1784 11.4262 58.9464 12.5091 60.1884 12.5091C61.4957 12.5091 62.1412 11.4102 62.1412 10.2792C62.133 9.1963 61.4957 8.11343 60.1884 8.11343Z" fill="black"/>
<path d="M66.0059 14.6264V1.5918H68.7753V14.6184H66.0059V14.6264Z" fill="black"/>
<path d="M78.6458 11.1137H72.6159C72.7058 12.0602 73.6209 12.742 74.5932 12.742C75.4593 12.742 76.0639 12.373 76.4234 11.8436L78.3272 13.0789C77.551 14.258 76.2437 14.9077 74.5523 14.9077C72.0521 14.9077 69.9768 13.2634 69.9768 10.3677C69.9768 7.56826 71.9377 5.77148 74.4625 5.77148C76.9218 5.77148 78.6295 7.50408 78.6295 10.4479C78.6622 10.6645 78.6622 10.8971 78.6458 11.1137ZM76.1374 9.34898C76.1374 8.4506 75.5818 7.70462 74.5033 7.70462C73.4575 7.70462 72.6894 8.46664 72.6159 9.34898H76.1374Z" fill="black"/>
<path d="M79.6017 7.21532C80.574 6.2688 81.9548 5.77148 83.303 5.77148C86.0892 5.77148 87.1268 7.18323 87.1268 10.3115V14.635H84.6266V13.7126H84.5776C84.1609 14.4265 83.2131 14.8275 82.2244 14.8275C80.909 14.8275 79.2095 14.1618 79.2095 12.1324C79.2095 9.65379 82.1346 9.23668 84.5449 9.23668V9.11636C84.5449 8.26611 83.8994 7.88109 83.0497 7.88109C82.2735 7.88109 81.4891 8.28215 80.9988 8.76343L79.6017 7.21532ZM84.643 10.8811H84.2998C83.0987 10.8811 81.7505 11.0335 81.7505 12.0602C81.7505 12.7099 82.3797 12.9425 82.9353 12.9425C84.0302 12.9425 84.6593 12.2447 84.6593 11.1778V10.8811H84.643Z" fill="black"/>
<path d="M93.8022 3.67766C93.6061 3.61349 93.3201 3.55735 93.0505 3.55735C92.0455 3.55735 91.833 4.37552 91.833 5.18567V6.05197H93.6959V8.17761H91.833V14.6348H89.0877V8.17761H87.5598V6.05197H89.0714V5.22577C89.0714 3.11617 89.8639 1.2793 92.6419 1.2793C93.1077 1.2793 93.5897 1.32742 93.9574 1.44774L93.8022 3.67766Z" fill="black"/>
<path d="M2.34034 9.70241C2.31584 9.67834 2.27499 9.64626 2.23414 9.60615C2.20963 9.58209 2.17696 9.55 2.13611 9.51792L0.763672 8.1543C1.34369 8.72381 2.12794 9.48583 2.34034 9.70241Z" fill="black"/>
<path d="M14.5147 7.29563C14.2696 7.85712 13.9346 8.40257 13.5015 8.95604L10.9115 6.43735C10.9278 6.33308 10.936 6.22078 10.936 6.10848C10.9278 5.56303 10.699 5.07373 10.2415 4.62454C9.78391 4.17535 9.26916 3.95075 8.70539 3.93471C8.13345 3.92669 7.6187 4.14326 7.16115 4.59245L5.23289 6.48548L2.87158 4.1593L4.79167 2.2743C6.27872 0.814422 7.8148 0.0604203 9.39989 0.00427117C10.9932 -0.0518779 12.325 0.445442 13.4035 1.50425C14.2696 2.34649 14.7843 3.46947 14.9722 4.86518C15.0539 5.58709 14.9069 6.39725 14.5147 7.29563Z" fill="black"/>
<path d="M13.6241 10.4476L11.4671 12.5652L8.08447 9.22839L10.2415 7.09473L13.6241 10.4476Z" fill="url(#paint0_linear_595_7900)"/>
<path d="M26.5991 1.90527L16.582 11.7394C16.582 11.7394 16.5738 11.7474 16.5656 11.7554C16.5656 11.7554 16.5575 11.7634 16.5493 11.7715L16.4839 11.8356C16.4757 11.8437 16.4594 11.8597 16.4431 11.8757L16.4186 11.8998L16.3859 11.9319C16.3777 11.9399 16.3614 11.956 16.3532 11.964L16.3205 11.9961C16.2388 12.0763 16.1326 12.1806 16.0264 12.2848C16.01 12.3009 15.9937 12.3169 15.9773 12.333L15.9528 12.357C15.9365 12.3731 15.9201 12.3891 15.9038 12.4052C15.3809 12.9185 14.6782 13.6083 14.2779 14.0014L14.2043 14.0736C14.1144 14.1618 14.0409 14.234 14.0001 14.2741C13.6732 14.595 13.2157 14.2741 13.2157 14.2741L11.557 12.6458L11.4753 12.5656L13.6324 10.448L20.3813 3.75017L26.5991 1.90527Z" fill="#00ABDB"/>
<path d="M16.582 11.7397C16.582 11.7397 16.5738 11.7477 16.5656 11.7557C16.5656 11.7557 16.5575 11.7637 16.5493 11.7718L16.5166 11.8038C16.5084 11.8119 16.4921 11.8279 16.4839 11.8359C16.4758 11.8439 16.4594 11.86 16.4431 11.876C16.4349 11.8841 16.4267 11.8921 16.4186 11.9001C16.4104 11.9081 16.4022 11.9161 16.3859 11.9322C16.3777 11.9402 16.3614 11.9562 16.3532 11.9643C16.345 11.9723 16.3287 11.9883 16.3205 11.9964C16.2388 12.0766 16.1326 12.1808 16.0264 12.2851C16.01 12.3012 15.9937 12.3172 15.9773 12.3332L15.9528 12.3573C15.9365 12.3734 15.9202 12.3894 15.9038 12.4054C15.3809 12.9188 14.6782 13.6086 14.2779 14.0017C14.2533 14.0257 14.2288 14.0498 14.2043 14.0739C14.1144 14.1621 14.0409 14.2343 14.0001 14.2744C13.6732 14.5953 13.2157 14.2744 13.2157 14.2744L11.557 12.6461L11.4753 12.5659L13.6324 10.4482L16.582 11.7397Z" fill="#00ABDB"/>
<path d="M15.1357 17.1623L12.5538 19.7451L2.23434 9.5982C2.27519 9.63831 2.31605 9.6704 2.34056 9.69446C2.12812 9.47788 1.34374 8.71586 0.763631 8.15437L2.13629 9.50997C1.72776 9.13297 0.935214 8.38699 0.469489 7.92977C0.461319 7.92175 0.444977 7.90571 0.436807 7.89769C0.428636 7.88967 0.412295 7.88165 0.404124 7.8656L0.159006 7.62496L0.150836 7.61694C0.159006 7.61694 0.150836 7.60892 0.142665 7.6009C0.126324 7.58486 0.118153 7.56882 0.101812 7.55277C0.0773003 7.52069 0.0527885 7.4886 0.0446179 7.45652C0.0364473 7.44048 0.0364473 7.43245 0.0282767 7.41641C0.0282767 7.40839 0.0201061 7.39235 0.0201061 7.38433C-0.0289175 7.2239 0.0201061 7.0715 0.0773003 6.96722C0.0773003 6.9592 0.0854709 6.9592 0.0854709 6.95118C0.109983 6.91107 0.126324 6.87898 0.150836 6.85492C0.159006 6.8469 0.159006 6.83888 0.167177 6.83086C0.167177 6.83086 0.175348 6.83086 0.175348 6.82284L0.183518 6.81481L0.265224 6.7346L2.40592 4.625L4.74271 6.93513L15.1357 17.1623Z" fill="black"/>
<path d="M2.34034 9.70241C2.31584 9.67834 2.27499 9.64626 2.23414 9.60615C2.20963 9.58209 2.17696 9.55 2.13611 9.51792L0.763672 8.1543C1.34369 8.72381 2.12794 9.48583 2.34034 9.70241Z" fill="black"/>
<path d="M90.9945 21.3438C91.4566 21.3438 91.8092 20.9926 91.8092 20.5445C91.8092 20.0964 91.4323 19.7451 90.9945 19.7451C90.5568 19.7451 90.1798 20.0964 90.1798 20.5445C90.1677 20.9805 90.5446 21.3438 90.9945 21.3438Z" fill="#0A0103"/>
<path d="M59.9149 22.6519C60.3891 22.6519 60.8876 22.6519 61.374 22.6519C61.374 22.9668 61.374 23.2575 61.374 23.5966C61.7631 22.7972 62.4197 22.5187 63.2344 22.5308C64.0491 22.5429 64.6814 22.9062 65.0462 23.645C65.1799 23.4876 65.3015 23.3059 65.4474 23.1606C65.8244 22.773 66.2986 22.5913 66.8336 22.555C67.1862 22.5308 67.5388 22.555 67.8793 22.6761C68.4994 22.882 68.8885 23.3301 69.1196 23.9115C69.2776 24.3354 69.3263 24.7835 69.3263 25.2317C69.3263 26.2854 69.3263 27.327 69.3263 28.3807C69.3263 28.4049 69.3263 28.4412 69.3263 28.4654C68.8521 28.4654 68.3778 28.4654 67.8793 28.4654C67.8793 28.4049 67.8793 28.3564 67.8793 28.3201C67.8793 27.3391 67.8793 26.3823 67.8793 25.4012C67.8793 25.1832 67.855 24.941 67.7942 24.7351C67.6604 24.2869 67.3686 24.0205 66.8822 23.9599C66.3472 23.8994 65.8973 24.0447 65.6055 24.5292C65.4596 24.7714 65.3988 25.0136 65.3866 25.2801C65.3745 26.2854 65.3745 27.2785 65.3745 28.2838C65.3745 28.3443 65.3745 28.4049 65.3745 28.4654C64.8881 28.4654 64.4017 28.4654 63.9032 28.4654C63.9032 28.4049 63.9032 28.3564 63.9032 28.308C63.9032 27.2664 63.9032 26.2369 63.9032 25.1953C63.9032 24.8562 63.8181 24.5413 63.5749 24.2869C63.2222 23.8873 62.7602 23.8752 62.286 24.0205C61.7509 24.1779 61.5078 24.6018 61.4348 25.1348C61.4226 25.3164 61.4105 25.5102 61.4105 25.704C61.4105 26.576 61.4105 27.436 61.4105 28.308C61.4105 28.3686 61.4105 28.417 61.4105 28.4897C60.9241 28.4897 60.4256 28.4897 59.9392 28.4897C59.9149 26.5155 59.9149 24.5776 59.9149 22.6519Z" fill="#0A0103"/>
<path d="M75.0535 23.3302C75.0535 23.1364 75.0535 22.9063 75.0535 22.6519C75.5399 22.6519 76.0262 22.6519 76.5126 22.6519C76.5126 24.5777 76.5126 26.5034 76.5126 28.4292C76.0384 28.4292 75.5642 28.4292 75.0656 28.4292C75.0656 28.187 75.0656 27.9447 75.0656 27.7025C75.0413 27.7146 75.017 27.7146 75.017 27.7146C74.6279 28.2354 74.0807 28.4655 73.4484 28.5503C72.5 28.6714 71.661 28.3928 70.9922 27.6904C70.518 27.2059 70.2626 26.5882 70.1897 25.91C70.1167 25.1833 70.214 24.505 70.6031 23.8752C71.2111 22.9063 72.1109 22.4703 73.2539 22.5308C73.7889 22.5551 74.2631 22.7125 74.7009 23.0516C74.8225 23.1606 74.944 23.2454 75.0535 23.3302ZM73.3147 23.8631C72.3784 23.8631 71.661 24.5777 71.661 25.5224C71.661 26.4671 72.3905 27.218 73.3147 27.218C74.2631 27.218 75.0292 26.4792 75.0292 25.5224C75.017 24.614 74.2631 23.8631 73.3147 23.8631Z" fill="#0A0103"/>
<path d="M87.6263 23.3423C87.6263 23.1364 87.6263 22.8941 87.6263 22.664C88.1127 22.664 88.5991 22.664 89.0855 22.664C89.0855 24.5898 89.0855 26.5155 89.0855 28.4413C88.6113 28.4413 88.137 28.4413 87.6263 28.4413C87.6263 28.199 87.6263 27.9568 87.6263 27.6903C87.5047 27.8115 87.4196 27.9084 87.3102 28.0052C86.836 28.4049 86.2523 28.5745 85.6322 28.5745C84.8175 28.5745 84.1122 28.2838 83.5529 27.6903C83.0665 27.1817 82.8233 26.564 82.7625 25.8615C82.7017 25.1348 82.8233 24.4323 83.2246 23.8146C83.8326 22.8941 84.7081 22.4824 85.8267 22.5429C86.3617 22.5671 86.8481 22.7246 87.2737 23.0637C87.4075 23.1606 87.5047 23.2575 87.6263 23.3423ZM85.8875 23.8631C84.9512 23.8631 84.2338 24.5777 84.2338 25.5224C84.2338 26.4671 84.9634 27.218 85.8875 27.218C86.836 27.218 87.602 26.4792 87.602 25.5224C87.602 24.614 86.8238 23.8631 85.8875 23.8631Z" fill="#0A0103"/>
<path d="M81.9843 24.3354C81.5222 24.3354 81.0602 24.3354 80.5981 24.3354C80.4522 23.742 79.8199 23.4876 79.3092 23.8146C78.9201 24.0569 78.9323 24.5292 79.3336 24.723C79.5889 24.8441 79.8686 24.9047 80.1361 24.9773C80.5495 25.0985 80.9872 25.1832 81.3763 25.4013C82.2153 25.8857 82.4342 26.9273 81.8627 27.7025C81.5709 28.1143 81.1331 28.3444 80.6468 28.4776C79.8564 28.6835 79.0782 28.6351 78.3486 28.2233C77.765 27.8962 77.4245 27.3876 77.3759 26.7214C77.3759 26.7093 77.3759 26.6972 77.3759 26.6609C77.8379 26.6609 78.2878 26.6609 78.7499 26.6609C78.7985 27.0605 79.0296 27.3028 79.4308 27.3876C79.747 27.4602 80.051 27.436 80.3549 27.3028C80.6103 27.1817 80.7076 26.9758 80.6954 26.7335C80.6832 26.5397 80.5495 26.4065 80.3793 26.346C80.1361 26.2612 79.8929 26.2006 79.6375 26.1279C79.2363 26.0189 78.835 25.9221 78.4459 25.7283C77.5218 25.2559 77.3759 24.2628 77.7042 23.6208C77.9474 23.1606 78.3243 22.8699 78.8107 22.7125C79.6497 22.4339 80.4644 22.4945 81.2426 22.9547C81.7533 23.2696 81.9721 23.7298 81.9965 24.2991C81.9965 24.2991 81.9843 24.3112 81.9843 24.3354Z" fill="#0A0103"/>
<path d="M91.8213 22.664C91.8213 24.5898 91.8213 26.5155 91.8213 28.4413C91.3349 28.4413 90.8485 28.4413 90.3621 28.4413C90.3621 26.5155 90.3621 24.5898 90.3621 22.664C90.8607 22.664 91.3349 22.664 91.8213 22.664Z" fill="#0A0103"/>
<path d="M91.8091 22.664H90.3621V26.564L91.8213 24.7957L91.8091 22.664Z" fill="#ED0331"/>
<path d="M92.6724 27.6782C92.6724 27.5571 92.6968 27.436 92.7575 27.3512C92.8183 27.2422 92.8913 27.1696 93.0007 27.109C93.1102 27.0484 93.2075 27.0242 93.3291 27.0242C93.4507 27.0242 93.5479 27.0484 93.6574 27.109C93.7668 27.1696 93.8398 27.2422 93.9006 27.3512C93.9613 27.4602 93.9857 27.5571 93.9857 27.6782C93.9857 27.7994 93.9613 27.8963 93.9006 28.0053C93.8398 28.1143 93.7668 28.1869 93.6574 28.2596C93.5479 28.3202 93.4507 28.3444 93.3169 28.3444C93.1953 28.3444 93.0737 28.3202 92.9764 28.2596C92.867 28.199 92.794 28.1143 92.7332 28.0174C92.6968 27.8963 92.6724 27.7994 92.6724 27.6782ZM92.7819 27.6782C92.7819 27.7872 92.8062 27.872 92.8548 27.9568C92.9035 28.0416 92.9764 28.1021 93.0615 28.1627C93.1467 28.2112 93.2439 28.2354 93.3412 28.2354C93.4506 28.2354 93.5358 28.2112 93.6209 28.1627C93.706 28.1143 93.7668 28.0416 93.8276 27.9568C93.8762 27.872 93.9006 27.7751 93.9006 27.6782C93.9006 27.5692 93.8762 27.4845 93.8276 27.3997C93.779 27.3149 93.706 27.2543 93.6209 27.1938C93.5358 27.1453 93.4385 27.1211 93.3412 27.1211C93.2318 27.1211 93.1467 27.1453 93.0615 27.1938C92.9764 27.2422 92.9156 27.3149 92.8548 27.3997C92.8062 27.4845 92.7819 27.5692 92.7819 27.6782ZM93.1953 28.0295H93.0615V27.2786H93.3169C93.402 27.2786 93.475 27.2907 93.5358 27.3391C93.5966 27.3876 93.6087 27.4239 93.6087 27.4966C93.6087 27.5692 93.5601 27.6298 93.4871 27.654C93.5601 27.6782 93.6087 27.7388 93.6087 27.8357V27.8963C93.6087 27.9447 93.6087 27.981 93.6209 28.0053V28.0174H93.4871C93.475 28.0053 93.475 27.9568 93.475 27.8963C93.475 27.8357 93.475 27.8115 93.475 27.7872C93.4628 27.7267 93.4263 27.7025 93.3534 27.7025H93.1953V28.0295ZM93.1953 27.6298H93.3412C93.3899 27.6298 93.4142 27.6177 93.4507 27.6056C93.475 27.5935 93.4993 27.5571 93.4993 27.5329C93.4993 27.4845 93.4871 27.4602 93.475 27.4481C93.4506 27.436 93.402 27.4239 93.3412 27.4239H93.2075V27.6298H93.1953Z" fill="#0A0103"/>
<path d="M47.8842 23.9732C47.9932 23.7962 48.1498 23.6532 48.354 23.5443C48.5583 23.4353 48.792 23.3809 49.0553 23.3809C49.3685 23.3809 49.6522 23.4603 49.9064 23.6192C50.1605 23.778 50.3603 24.005 50.5055 24.3C50.6553 24.595 50.7302 24.9377 50.7302 25.3281C50.7302 25.7185 50.6553 26.0634 50.5055 26.363C50.3603 26.658 50.1605 26.8872 49.9064 27.0506C49.6522 27.2095 49.3685 27.2889 49.0553 27.2889C48.7875 27.2889 48.5537 27.2367 48.354 27.1324C48.1543 27.0234 47.9977 26.8804 47.8842 26.7034V27.2345H46.72V22.1962H47.8842V23.9732ZM49.5455 25.3281C49.5455 25.0376 49.4638 24.8106 49.3004 24.6472C49.1415 24.4793 48.9441 24.3953 48.7081 24.3953C48.4766 24.3953 48.2791 24.4793 48.1157 24.6472C47.9569 24.8152 47.8774 25.0444 47.8774 25.3349C47.8774 25.6254 47.9569 25.8546 48.1157 26.0226C48.2791 26.1905 48.4766 26.2745 48.7081 26.2745C48.9395 26.2745 49.137 26.1905 49.3004 26.0226C49.4638 25.8501 49.5455 25.6186 49.5455 25.3281Z" fill="#0A0103"/>
<path d="M55.2218 23.4353L52.8389 29.0387H51.5861L52.4576 27.1051L50.912 23.4353H52.2125L53.0908 25.8115L53.9623 23.4353H55.2218Z" fill="#0A0103"/>
<defs>
<linearGradient id="paint0_linear_595_7900" x1="9.16067" y1="8.1599" x2="12.5212" y2="11.5435" gradientUnits="userSpaceOnUse">
<stop stop-color="#00ABDB"/>
<stop offset="1" stop-color="#144B98"/>
</linearGradient>
</defs>
</svg>
